<svg xmlns="http://www.w3.org/2000/svg" width="297mm" height="210mm" viewBox="0 0 297 210">
  <!-- OmniDraw Smoke Test Specimen (TV3 Hardware Verification Fixture) -->
  <!-- Khung can goc toa do A4 (Origin & Boundary Verification) -->
  <path d="M 10 10 L 287 10 L 287 200 L 10 200 Z" fill="none" stroke="#000000" stroke-width="0.5" id="alignment_border" />
  
  <!-- Goc toa do (0,0) offset marker tai (15, 15) -->
  <path d="M 15 15 L 35 15 M 15 15 L 15 35" fill="none" stroke="#000000" stroke-width="0.7" id="origin_marker" />
  
  <!-- Duong cong Cubic Bezier kiem tra do muot dong hoc (Kinematic Smoothness) -->
  <path d="M 40 40 C 60 10, 100 70, 120 40 C 140 10, 180 70, 200 40" fill="none" stroke="#000000" stroke-width="0.5" id="bezier_wave" />

  <!-- Luoi song sinusoidal nho dan kiem tra do rung dong co (Jitter & Vibration) -->
  <path d="M 40 60 C 50 50, 60 70, 70 60 C 80 50, 90 70, 100 60 C 110 50, 120 70, 130 60 C 140 55, 150 65, 160 60" fill="none" stroke="#000000" stroke-width="0.5" id="vibration_check" />

  <!-- Mau chu viet tay net don Centerline (Single-stroke Handwriting: "OmniDraw") -->
  <!-- Chu O -->
  <path d="M 50 100 C 42 100, 38 112, 38 120 C 38 128, 44 135, 52 135 C 60 135, 64 126, 64 118 C 64 108, 58 100, 50 100" fill="none" stroke="#000000" stroke-width="0.5" id="hw_O" />
  <!-- Chu m -->
  <path d="M 70 120 L 70 135 M 70 124 C 74 120, 78 120, 82 124 L 82 135 M 82 124 C 86 120, 90 120, 94 124 L 94 135" fill="none" stroke="#000000" stroke-width="0.5" id="hw_m" />
  <!-- Chu n -->
  <path d="M 102 120 L 102 135 M 102 124 C 106 120, 110 120, 114 124 L 114 135" fill="none" stroke="#000000" stroke-width="0.5" id="hw_n" />
  <!-- Chu i -->
  <path d="M 122 120 L 122 135 M 122 113 L 122 114" fill="none" stroke="#000000" stroke-width="0.5" id="hw_i" />
  <!-- Chu D -->
  <path d="M 134 105 L 134 135 M 134 105 C 146 105, 152 112, 152 120 C 152 128, 144 135, 134 135" fill="none" stroke="#000000" stroke-width="0.5" id="hw_D" />
  <!-- Chu r -->
  <path d="M 158 120 L 158 135 M 158 124 C 162 120, 166 121, 170 123" fill="none" stroke="#000000" stroke-width="0.5" id="hw_r" />
  <!-- Chu a -->
  <path d="M 182 124 C 176 120, 172 125, 172 130 C 172 135, 178 135, 182 133 L 182 135" fill="none" stroke="#000000" stroke-width="0.5" id="hw_a" />
  <!-- Chu w -->
  <path d="M 190 120 L 193 133 C 195 135, 197 130, 199 123 L 202 133 C 204 135, 206 128, 208 120" fill="none" stroke="#000000" stroke-width="0.5" id="hw_w" />

  <!-- Doan kiem tra nhac but dai (Long Pen-up Rapid Travel) -->
  <path d="M 250 170 L 270 170 L 260 185 Z" fill="none" stroke="#000000" stroke-width="0.5" id="penup_target_triangle" />
</svg>
