solid OmniDraw_Pen_Assembly
  facet normal 0.000000e+00 0.000000e+00 -1.000000e+00
    outer loop
      vertex -2.250000e+01 -2.250000e+01 0.000000e+00
      vertex 2.250000e+01 2.250000e+01 0.000000e+00
      vertex 2.250000e+01 -2.250000e+01 0.000000e+00
    endloop
  endfacet
  facet normal 0.000000e+00 0.000000e+00 -1.000000e+00
    outer loop
      vertex -2.250000e+01 -2.250000e+01 0.000000e+00
      vertex -2.250000e+01 2.250000e+01 0.000000e+00
      vertex 2.250000e+01 2.250000e+01 0.000000e+00
    endloop
  endfacet
  facet normal 0.000000e+00 0.000000e+00 1.000000e+00
    outer loop
      vertex -2.250000e+01 -2.250000e+01 6.000000e+00
      vertex 2.250000e+01 -2.250000e+01 6.000000e+00
      vertex 2.250000e+01 2.250000e+01 6.000000e+00
    endloop
  endfacet
  facet normal 0.000000e+00 0.000000e+00 1.000000e+00
    outer loop
      vertex -2.250000e+01 -2.250000e+01 6.000000e+00
      vertex 2.250000e+01 2.250000e+01 6.000000e+00
      vertex -2.250000e+01 2.250000e+01 6.000000e+00
    endloop
  endfacet
  facet normal 0.000000e+00 -1.000000e+00 0.000000e+00
    outer loop
      vertex -2.250000e+01 -2.250000e+01 0.000000e+00
      vertex 2.250000e+01 -2.250000e+01 0.000000e+00
      vertex 2.250000e+01 -2.250000e+01 6.000000e+00
    endloop
  endfacet
  facet normal 0.000000e+00 -1.000000e+00 0.000000e+00
    outer loop
      vertex -2.250000e+01 -2.250000e+01 0.000000e+00
      vertex 2.250000e+01 -2.250000e+01 6.000000e+00
      vertex -2.250000e+01 -2.250000e+01 6.000000e+00
    endloop
  endfacet
  facet normal 0.000000e+00 1.000000e+00 0.000000e+00
    outer loop
      vertex 2.250000e+01 2.250000e+01 0.000000e+00
      vertex -2.250000e+01 2.250000e+01 0.000000e+00
      vertex -2.250000e+01 2.250000e+01 6.000000e+00
    endloop
  endfacet
  facet normal 0.000000e+00 1.000000e+00 -0.000000e+00
    outer loop
      vertex 2.250000e+01 2.250000e+01 0.000000e+00
      vertex -2.250000e+01 2.250000e+01 6.000000e+00
      vertex 2.250000e+01 2.250000e+01 6.000000e+00
    endloop
  endfacet
  facet normal -1.000000e+00 0.000000e+00 0.000000e+00
    outer loop
      vertex -2.250000e+01 -2.250000e+01 0.000000e+00
      vertex -2.250000e+01 -2.250000e+01 6.000000e+00
      vertex -2.250000e+01 2.250000e+01 6.000000e+00
    endloop
  endfacet
  facet normal -1.000000e+00 0.000000e+00 0.000000e+00
    outer loop
      vertex -2.250000e+01 -2.250000e+01 0.000000e+00
      vertex -2.250000e+01 2.250000e+01 6.000000e+00
      vertex -2.250000e+01 2.250000e+01 0.000000e+00
    endloop
  endfacet
  facet normal 1.000000e+00 0.000000e+00 0.000000e+00
    outer loop
      vertex 2.250000e+01 -2.250000e+01 0.000000e+00
      vertex 2.250000e+01 2.250000e+01 0.000000e+00
      vertex 2.250000e+01 2.250000e+01 6.000000e+00
    endloop
  endfacet
  facet normal 1.000000e+00 0.000000e+00 0.000000e+00
    outer loop
      vertex 2.250000e+01 -2.250000e+01 0.000000e+00
      vertex 2.250000e+01 2.250000e+01 6.000000e+00
      vertex 2.250000e+01 -2.250000e+01 6.000000e+00
    endloop
  endfacet
  facet normal 0.000000e+00 0.000000e+00 -1.000000e+00
    outer loop
      vertex -2.250000e+01 -2.250000e+01 6.000000e+00
      vertex -1.650000e+01 2.250000e+01 6.000000e+00
      vertex -1.650000e+01 -2.250000e+01 6.000000e+00
    endloop
  endfacet
  facet normal 0.000000e+00 0.000000e+00 -1.000000e+00
    outer loop
      vertex -2.250000e+01 -2.250000e+01 6.000000e+00
      vertex -2.250000e+01 2.250000e+01 6.000000e+00
      vertex -1.650000e+01 2.250000e+01 6.000000e+00
    endloop
  endfacet
  facet normal 0.000000e+00 0.000000e+00 1.000000e+00
    outer loop
      vertex -2.250000e+01 -2.250000e+01 1.800000e+01
      vertex -1.650000e+01 -2.250000e+01 1.800000e+01
      vertex -1.650000e+01 2.250000e+01 1.800000e+01
    endloop
  endfacet
  facet normal 0.000000e+00 0.000000e+00 1.000000e+00
    outer loop
      vertex -2.250000e+01 -2.250000e+01 1.800000e+01
      vertex -1.650000e+01 2.250000e+01 1.800000e+01
      vertex -2.250000e+01 2.250000e+01 1.800000e+01
    endloop
  endfacet
  facet normal 0.000000e+00 -1.000000e+00 0.000000e+00
    outer loop
      vertex -2.250000e+01 -2.250000e+01 6.000000e+00
      vertex -1.650000e+01 -2.250000e+01 6.000000e+00
      vertex -1.650000e+01 -2.250000e+01 1.800000e+01
    endloop
  endfacet
  facet normal 0.000000e+00 -1.000000e+00 0.000000e+00
    outer loop
      vertex -2.250000e+01 -2.250000e+01 6.000000e+00
      vertex -1.650000e+01 -2.250000e+01 1.800000e+01
      vertex -2.250000e+01 -2.250000e+01 1.800000e+01
    endloop
  endfacet
  facet normal 0.000000e+00 1.000000e+00 0.000000e+00
    outer loop
      vertex -1.650000e+01 2.250000e+01 6.000000e+00
      vertex -2.250000e+01 2.250000e+01 6.000000e+00
      vertex -2.250000e+01 2.250000e+01 1.800000e+01
    endloop
  endfacet
  facet normal 0.000000e+00 1.000000e+00 -0.000000e+00
    outer loop
      vertex -1.650000e+01 2.250000e+01 6.000000e+00
      vertex -2.250000e+01 2.250000e+01 1.800000e+01
      vertex -1.650000e+01 2.250000e+01 1.800000e+01
    endloop
  endfacet
  facet normal -1.000000e+00 0.000000e+00 0.000000e+00
    outer loop
      vertex -2.250000e+01 -2.250000e+01 6.000000e+00
      vertex -2.250000e+01 -2.250000e+01 1.800000e+01
      vertex -2.250000e+01 2.250000e+01 1.800000e+01
    endloop
  endfacet
  facet normal -1.000000e+00 0.000000e+00 0.000000e+00
    outer loop
      vertex -2.250000e+01 -2.250000e+01 6.000000e+00
      vertex -2.250000e+01 2.250000e+01 1.800000e+01
      vertex -2.250000e+01 2.250000e+01 6.000000e+00
    endloop
  endfacet
  facet normal 1.000000e+00 0.000000e+00 0.000000e+00
    outer loop
      vertex -1.650000e+01 -2.250000e+01 6.000000e+00
      vertex -1.650000e+01 2.250000e+01 6.000000e+00
      vertex -1.650000e+01 2.250000e+01 1.800000e+01
    endloop
  endfacet
  facet normal 1.000000e+00 0.000000e+00 0.000000e+00
    outer loop
      vertex -1.650000e+01 -2.250000e+01 6.000000e+00
      vertex -1.650000e+01 2.250000e+01 1.800000e+01
      vertex -1.650000e+01 -2.250000e+01 1.800000e+01
    endloop
  endfacet
  facet normal 0.000000e+00 0.000000e+00 -1.000000e+00
    outer loop
      vertex 1.650000e+01 -2.250000e+01 6.000000e+00
      vertex 2.250000e+01 2.250000e+01 6.000000e+00
      vertex 2.250000e+01 -2.250000e+01 6.000000e+00
    endloop
  endfacet
  facet normal 0.000000e+00 0.000000e+00 -1.000000e+00
    outer loop
      vertex 1.650000e+01 -2.250000e+01 6.000000e+00
      vertex 1.650000e+01 2.250000e+01 6.000000e+00
      vertex 2.250000e+01 2.250000e+01 6.000000e+00
    endloop
  endfacet
  facet normal 0.000000e+00 0.000000e+00 1.000000e+00
    outer loop
      vertex 1.650000e+01 -2.250000e+01 1.800000e+01
      vertex 2.250000e+01 -2.250000e+01 1.800000e+01
      vertex 2.250000e+01 2.250000e+01 1.800000e+01
    endloop
  endfacet
  facet normal 0.000000e+00 0.000000e+00 1.000000e+00
    outer loop
      vertex 1.650000e+01 -2.250000e+01 1.800000e+01
      vertex 2.250000e+01 2.250000e+01 1.800000e+01
      vertex 1.650000e+01 2.250000e+01 1.800000e+01
    endloop
  endfacet
  facet normal 0.000000e+00 -1.000000e+00 0.000000e+00
    outer loop
      vertex 1.650000e+01 -2.250000e+01 6.000000e+00
      vertex 2.250000e+01 -2.250000e+01 6.000000e+00
      vertex 2.250000e+01 -2.250000e+01 1.800000e+01
    endloop
  endfacet
  facet normal 0.000000e+00 -1.000000e+00 0.000000e+00
    outer loop
      vertex 1.650000e+01 -2.250000e+01 6.000000e+00
      vertex 2.250000e+01 -2.250000e+01 1.800000e+01
      vertex 1.650000e+01 -2.250000e+01 1.800000e+01
    endloop
  endfacet
  facet normal 0.000000e+00 1.000000e+00 0.000000e+00
    outer loop
      vertex 2.250000e+01 2.250000e+01 6.000000e+00
      vertex 1.650000e+01 2.250000e+01 6.000000e+00
      vertex 1.650000e+01 2.250000e+01 1.800000e+01
    endloop
  endfacet
  facet normal 0.000000e+00 1.000000e+00 -0.000000e+00
    outer loop
      vertex 2.250000e+01 2.250000e+01 6.000000e+00
      vertex 1.650000e+01 2.250000e+01 1.800000e+01
      vertex 2.250000e+01 2.250000e+01 1.800000e+01
    endloop
  endfacet
  facet normal -1.000000e+00 0.000000e+00 0.000000e+00
    outer loop
      vertex 1.650000e+01 -2.250000e+01 6.000000e+00
      vertex 1.650000e+01 -2.250000e+01 1.800000e+01
      vertex 1.650000e+01 2.250000e+01 1.800000e+01
    endloop
  endfacet
  facet normal -1.000000e+00 0.000000e+00 0.000000e+00
    outer loop
      vertex 1.650000e+01 -2.250000e+01 6.000000e+00
      vertex 1.650000e+01 2.250000e+01 1.800000e+01
      vertex 1.650000e+01 2.250000e+01 6.000000e+00
    endloop
  endfacet
  facet normal 1.000000e+00 0.000000e+00 0.000000e+00
    outer loop
      vertex 2.250000e+01 -2.250000e+01 6.000000e+00
      vertex 2.250000e+01 2.250000e+01 6.000000e+00
      vertex 2.250000e+01 2.250000e+01 1.800000e+01
    endloop
  endfacet
  facet normal 1.000000e+00 0.000000e+00 0.000000e+00
    outer loop
      vertex 2.250000e+01 -2.250000e+01 6.000000e+00
      vertex 2.250000e+01 2.250000e+01 1.800000e+01
      vertex 2.250000e+01 -2.250000e+01 1.800000e+01
    endloop
  endfacet
  facet normal 0.000000e+00 0.000000e+00 -1.000000e+00
    outer loop
      vertex 2.250000e+01 -1.500000e+01 0.000000e+00
      vertex 3.850000e+01 1.500000e+01 0.000000e+00
      vertex 3.850000e+01 -1.500000e+01 0.000000e+00
    endloop
  endfacet
  facet normal 0.000000e+00 0.000000e+00 -1.000000e+00
    outer loop
      vertex 2.250000e+01 -1.500000e+01 0.000000e+00
      vertex 2.250000e+01 1.500000e+01 0.000000e+00
      vertex 3.850000e+01 1.500000e+01 0.000000e+00
    endloop
  endfacet
  facet normal 0.000000e+00 0.000000e+00 1.000000e+00
    outer loop
      vertex 2.250000e+01 -1.500000e+01 8.000000e+00
      vertex 3.850000e+01 -1.500000e+01 8.000000e+00
      vertex 3.850000e+01 1.500000e+01 8.000000e+00
    endloop
  endfacet
  facet normal 0.000000e+00 0.000000e+00 1.000000e+00
    outer loop
      vertex 2.250000e+01 -1.500000e+01 8.000000e+00
      vertex 3.850000e+01 1.500000e+01 8.000000e+00
      vertex 2.250000e+01 1.500000e+01 8.000000e+00
    endloop
  endfacet
  facet normal 0.000000e+00 -1.000000e+00 0.000000e+00
    outer loop
      vertex 2.250000e+01 -1.500000e+01 0.000000e+00
      vertex 3.850000e+01 -1.500000e+01 0.000000e+00
      vertex 3.850000e+01 -1.500000e+01 8.000000e+00
    endloop
  endfacet
  facet normal 0.000000e+00 -1.000000e+00 0.000000e+00
    outer loop
      vertex 2.250000e+01 -1.500000e+01 0.000000e+00
      vertex 3.850000e+01 -1.500000e+01 8.000000e+00
      vertex 2.250000e+01 -1.500000e+01 8.000000e+00
    endloop
  endfacet
  facet normal 0.000000e+00 1.000000e+00 0.000000e+00
    outer loop
      vertex 3.850000e+01 1.500000e+01 0.000000e+00
      vertex 2.250000e+01 1.500000e+01 0.000000e+00
      vertex 2.250000e+01 1.500000e+01 8.000000e+00
    endloop
  endfacet
  facet normal 0.000000e+00 1.000000e+00 -0.000000e+00
    outer loop
      vertex 3.850000e+01 1.500000e+01 0.000000e+00
      vertex 2.250000e+01 1.500000e+01 8.000000e+00
      vertex 3.850000e+01 1.500000e+01 8.000000e+00
    endloop
  endfacet
  facet normal -1.000000e+00 0.000000e+00 0.000000e+00
    outer loop
      vertex 2.250000e+01 -1.500000e+01 0.000000e+00
      vertex 2.250000e+01 -1.500000e+01 8.000000e+00
      vertex 2.250000e+01 1.500000e+01 8.000000e+00
    endloop
  endfacet
  facet normal -1.000000e+00 0.000000e+00 0.000000e+00
    outer loop
      vertex 2.250000e+01 -1.500000e+01 0.000000e+00
      vertex 2.250000e+01 1.500000e+01 8.000000e+00
      vertex 2.250000e+01 1.500000e+01 0.000000e+00
    endloop
  endfacet
  facet normal 1.000000e+00 0.000000e+00 0.000000e+00
    outer loop
      vertex 3.850000e+01 -1.500000e+01 0.000000e+00
      vertex 3.850000e+01 1.500000e+01 0.000000e+00
      vertex 3.850000e+01 1.500000e+01 8.000000e+00
    endloop
  endfacet
  facet normal 1.000000e+00 0.000000e+00 0.000000e+00
    outer loop
      vertex 3.850000e+01 -1.500000e+01 0.000000e+00
      vertex 3.850000e+01 1.500000e+01 8.000000e+00
      vertex 3.850000e+01 -1.500000e+01 8.000000e+00
    endloop
  endfacet
  facet normal 0.000000e+00 0.000000e+00 -1.000000e+00
    outer loop
      vertex 2.250000e+01 -1.500000e+01 8.000000e+00
      vertex 3.850000e+01 -9.000000e+00 8.000000e+00
      vertex 3.850000e+01 -1.500000e+01 8.000000e+00
    endloop
  endfacet
  facet normal 0.000000e+00 0.000000e+00 -1.000000e+00
    outer loop
      vertex 2.250000e+01 -1.500000e+01 8.000000e+00
      vertex 2.250000e+01 -9.000000e+00 8.000000e+00
      vertex 3.850000e+01 -9.000000e+00 8.000000e+00
    endloop
  endfacet
  facet normal 0.000000e+00 0.000000e+00 1.000000e+00
    outer loop
      vertex 2.250000e+01 -1.500000e+01 2.600000e+01
      vertex 3.850000e+01 -1.500000e+01 2.600000e+01
      vertex 3.850000e+01 -9.000000e+00 2.600000e+01
    endloop
  endfacet
  facet normal 0.000000e+00 0.000000e+00 1.000000e+00
    outer loop
      vertex 2.250000e+01 -1.500000e+01 2.600000e+01
      vertex 3.850000e+01 -9.000000e+00 2.600000e+01
      vertex 2.250000e+01 -9.000000e+00 2.600000e+01
    endloop
  endfacet
  facet normal 0.000000e+00 -1.000000e+00 0.000000e+00
    outer loop
      vertex 2.250000e+01 -1.500000e+01 8.000000e+00
      vertex 3.850000e+01 -1.500000e+01 8.000000e+00
      vertex 3.850000e+01 -1.500000e+01 2.600000e+01
    endloop
  endfacet
  facet normal 0.000000e+00 -1.000000e+00 0.000000e+00
    outer loop
      vertex 2.250000e+01 -1.500000e+01 8.000000e+00
      vertex 3.850000e+01 -1.500000e+01 2.600000e+01
      vertex 2.250000e+01 -1.500000e+01 2.600000e+01
    endloop
  endfacet
  facet normal 0.000000e+00 1.000000e+00 0.000000e+00
    outer loop
      vertex 3.850000e+01 -9.000000e+00 8.000000e+00
      vertex 2.250000e+01 -9.000000e+00 8.000000e+00
      vertex 2.250000e+01 -9.000000e+00 2.600000e+01
    endloop
  endfacet
  facet normal 0.000000e+00 1.000000e+00 -0.000000e+00
    outer loop
      vertex 3.850000e+01 -9.000000e+00 8.000000e+00
      vertex 2.250000e+01 -9.000000e+00 2.600000e+01
      vertex 3.850000e+01 -9.000000e+00 2.600000e+01
    endloop
  endfacet
  facet normal -1.000000e+00 0.000000e+00 0.000000e+00
    outer loop
      vertex 2.250000e+01 -1.500000e+01 8.000000e+00
      vertex 2.250000e+01 -1.500000e+01 2.600000e+01
      vertex 2.250000e+01 -9.000000e+00 2.600000e+01
    endloop
  endfacet
  facet normal -1.000000e+00 0.000000e+00 0.000000e+00
    outer loop
      vertex 2.250000e+01 -1.500000e+01 8.000000e+00
      vertex 2.250000e+01 -9.000000e+00 2.600000e+01
      vertex 2.250000e+01 -9.000000e+00 8.000000e+00
    endloop
  endfacet
  facet normal 1.000000e+00 0.000000e+00 0.000000e+00
    outer loop
      vertex 3.850000e+01 -1.500000e+01 8.000000e+00
      vertex 3.850000e+01 -9.000000e+00 8.000000e+00
      vertex 3.850000e+01 -9.000000e+00 2.600000e+01
    endloop
  endfacet
  facet normal 1.000000e+00 0.000000e+00 0.000000e+00
    outer loop
      vertex 3.850000e+01 -1.500000e+01 8.000000e+00
      vertex 3.850000e+01 -9.000000e+00 2.600000e+01
      vertex 3.850000e+01 -1.500000e+01 2.600000e+01
    endloop
  endfacet
  facet normal 0.000000e+00 0.000000e+00 -1.000000e+00
    outer loop
      vertex 2.250000e+01 9.000000e+00 8.000000e+00
      vertex 3.850000e+01 1.500000e+01 8.000000e+00
      vertex 3.850000e+01 9.000000e+00 8.000000e+00
    endloop
  endfacet
  facet normal 0.000000e+00 0.000000e+00 -1.000000e+00
    outer loop
      vertex 2.250000e+01 9.000000e+00 8.000000e+00
      vertex 2.250000e+01 1.500000e+01 8.000000e+00
      vertex 3.850000e+01 1.500000e+01 8.000000e+00
    endloop
  endfacet
  facet normal 0.000000e+00 0.000000e+00 1.000000e+00
    outer loop
      vertex 2.250000e+01 9.000000e+00 2.600000e+01
      vertex 3.850000e+01 9.000000e+00 2.600000e+01
      vertex 3.850000e+01 1.500000e+01 2.600000e+01
    endloop
  endfacet
  facet normal 0.000000e+00 0.000000e+00 1.000000e+00
    outer loop
      vertex 2.250000e+01 9.000000e+00 2.600000e+01
      vertex 3.850000e+01 1.500000e+01 2.600000e+01
      vertex 2.250000e+01 1.500000e+01 2.600000e+01
    endloop
  endfacet
  facet normal 0.000000e+00 -1.000000e+00 0.000000e+00
    outer loop
      vertex 2.250000e+01 9.000000e+00 8.000000e+00
      vertex 3.850000e+01 9.000000e+00 8.000000e+00
      vertex 3.850000e+01 9.000000e+00 2.600000e+01
    endloop
  endfacet
  facet normal 0.000000e+00 -1.000000e+00 0.000000e+00
    outer loop
      vertex 2.250000e+01 9.000000e+00 8.000000e+00
      vertex 3.850000e+01 9.000000e+00 2.600000e+01
      vertex 2.250000e+01 9.000000e+00 2.600000e+01
    endloop
  endfacet
  facet normal 0.000000e+00 1.000000e+00 0.000000e+00
    outer loop
      vertex 3.850000e+01 1.500000e+01 8.000000e+00
      vertex 2.250000e+01 1.500000e+01 8.000000e+00
      vertex 2.250000e+01 1.500000e+01 2.600000e+01
    endloop
  endfacet
  facet normal 0.000000e+00 1.000000e+00 -0.000000e+00
    outer loop
      vertex 3.850000e+01 1.500000e+01 8.000000e+00
      vertex 2.250000e+01 1.500000e+01 2.600000e+01
      vertex 3.850000e+01 1.500000e+01 2.600000e+01
    endloop
  endfacet
  facet normal -1.000000e+00 0.000000e+00 0.000000e+00
    outer loop
      vertex 2.250000e+01 9.000000e+00 8.000000e+00
      vertex 2.250000e+01 9.000000e+00 2.600000e+01
      vertex 2.250000e+01 1.500000e+01 2.600000e+01
    endloop
  endfacet
  facet normal -1.000000e+00 0.000000e+00 0.000000e+00
    outer loop
      vertex 2.250000e+01 9.000000e+00 8.000000e+00
      vertex 2.250000e+01 1.500000e+01 2.600000e+01
      vertex 2.250000e+01 1.500000e+01 8.000000e+00
    endloop
  endfacet
  facet normal 1.000000e+00 0.000000e+00 0.000000e+00
    outer loop
      vertex 3.850000e+01 9.000000e+00 8.000000e+00
      vertex 3.850000e+01 1.500000e+01 8.000000e+00
      vertex 3.850000e+01 1.500000e+01 2.600000e+01
    endloop
  endfacet
  facet normal 1.000000e+00 0.000000e+00 0.000000e+00
    outer loop
      vertex 3.850000e+01 9.000000e+00 8.000000e+00
      vertex 3.850000e+01 1.500000e+01 2.600000e+01
      vertex 3.850000e+01 9.000000e+00 2.600000e+01
    endloop
  endfacet
  facet normal 0.000000e+00 0.000000e+00 -1.000000e+00
    outer loop
      vertex -1.300000e+01 -2.000000e+01 8.000000e+00
      vertex 1.300000e+01 2.000000e+01 8.000000e+00
      vertex 1.300000e+01 -2.000000e+01 8.000000e+00
    endloop
  endfacet
  facet normal 0.000000e+00 0.000000e+00 -1.000000e+00
    outer loop
      vertex -1.300000e+01 -2.000000e+01 8.000000e+00
      vertex -1.300000e+01 2.000000e+01 8.000000e+00
      vertex 1.300000e+01 2.000000e+01 8.000000e+00
    endloop
  endfacet
  facet normal 0.000000e+00 0.000000e+00 1.000000e+00
    outer loop
      vertex -1.300000e+01 -2.000000e+01 1.300000e+01
      vertex 1.300000e+01 -2.000000e+01 1.300000e+01
      vertex 1.300000e+01 2.000000e+01 1.300000e+01
    endloop
  endfacet
  facet normal 0.000000e+00 0.000000e+00 1.000000e+00
    outer loop
      vertex -1.300000e+01 -2.000000e+01 1.300000e+01
      vertex 1.300000e+01 2.000000e+01 1.300000e+01
      vertex -1.300000e+01 2.000000e+01 1.300000e+01
    endloop
  endfacet
  facet normal 0.000000e+00 -1.000000e+00 0.000000e+00
    outer loop
      vertex -1.300000e+01 -2.000000e+01 8.000000e+00
      vertex 1.300000e+01 -2.000000e+01 8.000000e+00
      vertex 1.300000e+01 -2.000000e+01 1.300000e+01
    endloop
  endfacet
  facet normal 0.000000e+00 -1.000000e+00 0.000000e+00
    outer loop
      vertex -1.300000e+01 -2.000000e+01 8.000000e+00
      vertex 1.300000e+01 -2.000000e+01 1.300000e+01
      vertex -1.300000e+01 -2.000000e+01 1.300000e+01
    endloop
  endfacet
  facet normal 0.000000e+00 1.000000e+00 0.000000e+00
    outer loop
      vertex 1.300000e+01 2.000000e+01 8.000000e+00
      vertex -1.300000e+01 2.000000e+01 8.000000e+00
      vertex -1.300000e+01 2.000000e+01 1.300000e+01
    endloop
  endfacet
  facet normal 0.000000e+00 1.000000e+00 0.000000e+00
    outer loop
      vertex 1.300000e+01 2.000000e+01 8.000000e+00
      vertex -1.300000e+01 2.000000e+01 1.300000e+01
      vertex 1.300000e+01 2.000000e+01 1.300000e+01
    endloop
  endfacet
  facet normal -1.000000e+00 0.000000e+00 0.000000e+00
    outer loop
      vertex -1.300000e+01 -2.000000e+01 8.000000e+00
      vertex -1.300000e+01 -2.000000e+01 1.300000e+01
      vertex -1.300000e+01 2.000000e+01 1.300000e+01
    endloop
  endfacet
  facet normal -1.000000e+00 0.000000e+00 0.000000e+00
    outer loop
      vertex -1.300000e+01 -2.000000e+01 8.000000e+00
      vertex -1.300000e+01 2.000000e+01 1.300000e+01
      vertex -1.300000e+01 2.000000e+01 8.000000e+00
    endloop
  endfacet
  facet normal 1.000000e+00 0.000000e+00 0.000000e+00
    outer loop
      vertex 1.300000e+01 -2.000000e+01 8.000000e+00
      vertex 1.300000e+01 2.000000e+01 8.000000e+00
      vertex 1.300000e+01 2.000000e+01 1.300000e+01
    endloop
  endfacet
  facet normal 1.000000e+00 0.000000e+00 0.000000e+00
    outer loop
      vertex 1.300000e+01 -2.000000e+01 8.000000e+00
      vertex 1.300000e+01 2.000000e+01 1.300000e+01
      vertex 1.300000e+01 -2.000000e+01 1.300000e+01
    endloop
  endfacet
  facet normal 0.000000e+00 0.000000e+00 -1.000000e+00
    outer loop
      vertex -1.300000e+01 -2.000000e+01 1.300000e+01
      vertex 1.300000e+01 -2.000000e+00 1.300000e+01
      vertex 1.300000e+01 -2.000000e+01 1.300000e+01
    endloop
  endfacet
  facet normal 0.000000e+00 0.000000e+00 -1.000000e+00
    outer loop
      vertex -1.300000e+01 -2.000000e+01 1.300000e+01
      vertex -1.300000e+01 -2.000000e+00 1.300000e+01
      vertex 1.300000e+01 -2.000000e+00 1.300000e+01
    endloop
  endfacet
  facet normal 0.000000e+00 0.000000e+00 1.000000e+00
    outer loop
      vertex -1.300000e+01 -2.000000e+01 3.800000e+01
      vertex 1.300000e+01 -2.000000e+01 3.800000e+01
      vertex 1.300000e+01 -2.000000e+00 3.800000e+01
    endloop
  endfacet
  facet normal 0.000000e+00 0.000000e+00 1.000000e+00
    outer loop
      vertex -1.300000e+01 -2.000000e+01 3.800000e+01
      vertex 1.300000e+01 -2.000000e+00 3.800000e+01
      vertex -1.300000e+01 -2.000000e+00 3.800000e+01
    endloop
  endfacet
  facet normal 0.000000e+00 -1.000000e+00 0.000000e+00
    outer loop
      vertex -1.300000e+01 -2.000000e+01 1.300000e+01
      vertex 1.300000e+01 -2.000000e+01 1.300000e+01
      vertex 1.300000e+01 -2.000000e+01 3.800000e+01
    endloop
  endfacet
  facet normal 0.000000e+00 -1.000000e+00 0.000000e+00
    outer loop
      vertex -1.300000e+01 -2.000000e+01 1.300000e+01
      vertex 1.300000e+01 -2.000000e+01 3.800000e+01
      vertex -1.300000e+01 -2.000000e+01 3.800000e+01
    endloop
  endfacet
  facet normal 0.000000e+00 1.000000e+00 0.000000e+00
    outer loop
      vertex 1.300000e+01 -2.000000e+00 1.300000e+01
      vertex -1.300000e+01 -2.000000e+00 1.300000e+01
      vertex -1.300000e+01 -2.000000e+00 3.800000e+01
    endloop
  endfacet
  facet normal 0.000000e+00 1.000000e+00 0.000000e+00
    outer loop
      vertex 1.300000e+01 -2.000000e+00 1.300000e+01
      vertex -1.300000e+01 -2.000000e+00 3.800000e+01
      vertex 1.300000e+01 -2.000000e+00 3.800000e+01
    endloop
  endfacet
  facet normal -1.000000e+00 0.000000e+00 0.000000e+00
    outer loop
      vertex -1.300000e+01 -2.000000e+01 1.300000e+01
      vertex -1.300000e+01 -2.000000e+01 3.800000e+01
      vertex -1.300000e+01 -2.000000e+00 3.800000e+01
    endloop
  endfacet
  facet normal -1.000000e+00 0.000000e+00 0.000000e+00
    outer loop
      vertex -1.300000e+01 -2.000000e+01 1.300000e+01
      vertex -1.300000e+01 -2.000000e+00 3.800000e+01
      vertex -1.300000e+01 -2.000000e+00 1.300000e+01
    endloop
  endfacet
  facet normal 1.000000e+00 0.000000e+00 0.000000e+00
    outer loop
      vertex 1.300000e+01 -2.000000e+01 1.300000e+01
      vertex 1.300000e+01 -2.000000e+00 1.300000e+01
      vertex 1.300000e+01 -2.000000e+00 3.800000e+01
    endloop
  endfacet
  facet normal 1.000000e+00 0.000000e+00 0.000000e+00
    outer loop
      vertex 1.300000e+01 -2.000000e+01 1.300000e+01
      vertex 1.300000e+01 -2.000000e+00 3.800000e+01
      vertex 1.300000e+01 -2.000000e+01 3.800000e+01
    endloop
  endfacet
  facet normal 0.000000e+00 0.000000e+00 -1.000000e+00
    outer loop
      vertex 1.300000e+01 -1.000000e+01 2.300000e+01
      vertex 2.500000e+01 0.000000e+00 2.300000e+01
      vertex 2.500000e+01 -1.000000e+01 2.300000e+01
    endloop
  endfacet
  facet normal 0.000000e+00 0.000000e+00 -1.000000e+00
    outer loop
      vertex 1.300000e+01 -1.000000e+01 2.300000e+01
      vertex 1.300000e+01 0.000000e+00 2.300000e+01
      vertex 2.500000e+01 0.000000e+00 2.300000e+01
    endloop
  endfacet
  facet normal 0.000000e+00 0.000000e+00 1.000000e+00
    outer loop
      vertex 1.300000e+01 -1.000000e+01 2.900000e+01
      vertex 2.500000e+01 -1.000000e+01 2.900000e+01
      vertex 2.500000e+01 0.000000e+00 2.900000e+01
    endloop
  endfacet
  facet normal 0.000000e+00 0.000000e+00 1.000000e+00
    outer loop
      vertex 1.300000e+01 -1.000000e+01 2.900000e+01
      vertex 2.500000e+01 0.000000e+00 2.900000e+01
      vertex 1.300000e+01 0.000000e+00 2.900000e+01
    endloop
  endfacet
  facet normal 0.000000e+00 -1.000000e+00 0.000000e+00
    outer loop
      vertex 1.300000e+01 -1.000000e+01 2.300000e+01
      vertex 2.500000e+01 -1.000000e+01 2.300000e+01
      vertex 2.500000e+01 -1.000000e+01 2.900000e+01
    endloop
  endfacet
  facet normal 0.000000e+00 -1.000000e+00 0.000000e+00
    outer loop
      vertex 1.300000e+01 -1.000000e+01 2.300000e+01
      vertex 2.500000e+01 -1.000000e+01 2.900000e+01
      vertex 1.300000e+01 -1.000000e+01 2.900000e+01
    endloop
  endfacet
  facet normal 0.000000e+00 1.000000e+00 0.000000e+00
    outer loop
      vertex 2.500000e+01 0.000000e+00 2.300000e+01
      vertex 1.300000e+01 0.000000e+00 2.300000e+01
      vertex 1.300000e+01 0.000000e+00 2.900000e+01
    endloop
  endfacet
  facet normal 0.000000e+00 1.000000e+00 0.000000e+00
    outer loop
      vertex 2.500000e+01 0.000000e+00 2.300000e+01
      vertex 1.300000e+01 0.000000e+00 2.900000e+01
      vertex 2.500000e+01 0.000000e+00 2.900000e+01
    endloop
  endfacet
  facet normal -1.000000e+00 0.000000e+00 0.000000e+00
    outer loop
      vertex 1.300000e+01 -1.000000e+01 2.300000e+01
      vertex 1.300000e+01 -1.000000e+01 2.900000e+01
      vertex 1.300000e+01 0.000000e+00 2.900000e+01
    endloop
  endfacet
  facet normal -1.000000e+00 0.000000e+00 0.000000e+00
    outer loop
      vertex 1.300000e+01 -1.000000e+01 2.300000e+01
      vertex 1.300000e+01 0.000000e+00 2.900000e+01
      vertex 1.300000e+01 0.000000e+00 2.300000e+01
    endloop
  endfacet
  facet normal 1.000000e+00 0.000000e+00 0.000000e+00
    outer loop
      vertex 2.500000e+01 -1.000000e+01 2.300000e+01
      vertex 2.500000e+01 0.000000e+00 2.300000e+01
      vertex 2.500000e+01 0.000000e+00 2.900000e+01
    endloop
  endfacet
  facet normal 1.000000e+00 0.000000e+00 0.000000e+00
    outer loop
      vertex 2.500000e+01 -1.000000e+01 2.300000e+01
      vertex 2.500000e+01 0.000000e+00 2.900000e+01
      vertex 2.500000e+01 -1.000000e+01 2.900000e+01
    endloop
  endfacet
endsolid OmniDraw_Pen_Assembly
